<?xml version="1.0" encoding="UTF-8" standalone="no"?>
<!DOCTYPE svg PUBLIC "-//W3C//DTD SVG 1.1//EN"
 "http://www.w3.org/Graphics/SVG/1.1/DTD/svg11.dtd">
<!-- Generated by graphviz version 2.43.0 (0)
 -->
<!-- Title: MethodologyWorkflow Pages: 1 -->
<svg width="748pt" height="850pt"
 viewBox="0.00 0.00 747.50 850.00" xmlns="http://www.w3.org/2000/svg" xmlns:xlink="http://www.w3.org/1999/xlink">
<g id="graph0" class="graph" transform="scale(1 1) rotate(0) translate(4 846)">
<title>MethodologyWorkflow</title>
<polygon fill="white" stroke="transparent" points="-4,4 -4,-846 743.5,-846 743.5,4 -4,4"/>
<text text-anchor="middle" x="369.75" y="-829.2" font-family="Helvetica,sans-Serif" font-size="11.00">Methodology Workflow: Iterative Challenge Resolution</text>
<!-- start -->
<g id="node1" class="node">
<title>start</title>
<path fill="#d9edf7" stroke="#2f4f4f" d="M668,-822C668,-822 495,-822 495,-822 489,-822 483,-816 483,-810 483,-810 483,-798 483,-798 483,-792 489,-786 495,-786 495,-786 668,-786 668,-786 674,-786 680,-792 680,-798 680,-798 680,-810 680,-810 680,-816 674,-822 668,-822"/>
<text text-anchor="middle" x="581.5" y="-807" font-family="Helvetica,sans-Serif" font-size="10.00">Start: Cow pose project setup</text>
<text text-anchor="middle" x="581.5" y="-796" font-family="Helvetica,sans-Serif" font-size="10.00">(dataset + simulation + ROS2 stack)</text>
</g>
<!-- detect -->
<g id="node2" class="node">
<title>detect</title>
<path fill="#eef5f9" stroke="#2f4f4f" d="M724,-749C724,-749 439,-749 439,-749 433,-749 427,-743 427,-737 427,-737 427,-725 427,-725 427,-719 433,-713 439,-713 439,-713 724,-713 724,-713 730,-713 736,-719 736,-725 736,-725 736,-737 736,-737 736,-743 730,-749 724,-749"/>
<text text-anchor="middle" x="581.5" y="-734" font-family="Helvetica,sans-Serif" font-size="10.00">Detect practical failure mode</text>
<text text-anchor="middle" x="581.5" y="-723" font-family="Helvetica,sans-Serif" font-size="10.00">(e.g., orientation, skeleton mapping, model URI, placement)</text>
</g>
<!-- start&#45;&gt;detect -->
<g id="edge1" class="edge">
<title>start&#45;&gt;detect</title>
<path fill="none" stroke="#3b4d5c" d="M581.5,-785.81C581.5,-777.18 581.5,-766.56 581.5,-757.03"/>
<polygon fill="#3b4d5c" stroke="#3b4d5c" points="584.3,-757.03 581.5,-749.03 578.7,-757.03 584.3,-757.03"/>
</g>
<!-- isolate -->
<g id="node3" class="node">
<title>isolate</title>
<path fill="#eef5f9" stroke="#2f4f4f" d="M476,-676C476,-676 199,-676 199,-676 193,-676 187,-670 187,-664 187,-664 187,-652 187,-652 187,-646 193,-640 199,-640 199,-640 476,-640 476,-640 482,-640 488,-646 488,-652 488,-652 488,-664 488,-664 488,-670 482,-676 476,-676"/>
<text text-anchor="middle" x="337.5" y="-661" font-family="Helvetica,sans-Serif" font-size="10.00">Isolate likely root cause</text>
<text text-anchor="middle" x="337.5" y="-650" font-family="Helvetica,sans-Serif" font-size="10.00">(frame convention / annotation semantics / resource path)</text>
</g>
<!-- detect&#45;&gt;isolate -->
<g id="edge2" class="edge">
<title>detect&#45;&gt;isolate</title>
<path fill="none" stroke="#3b4d5c" d="M523.06,-712.99C487.25,-702.58 441.32,-689.21 404.11,-678.38"/>
<polygon fill="#3b4d5c" stroke="#3b4d5c" points="404.78,-675.66 396.31,-676.11 403.21,-681.04 404.78,-675.66"/>
</g>
<!-- frame_branch -->
<g id="node11" class="node">
<title>frame_branch</title>
<path fill="#eefaf0" stroke="#2f4f4f" d="M155,-594C155,-594 12,-594 12,-594 6,-594 0,-588 0,-582 0,-582 0,-570 0,-570 0,-564 6,-558 12,-558 12,-558 155,-558 155,-558 161,-558 167,-564 167,-570 167,-570 167,-582 167,-582 167,-588 161,-594 155,-594"/>
<text text-anchor="middle" x="83.5" y="-579" font-family="Helvetica,sans-Serif" font-size="10.00">Frame/geometry checks</text>
<text text-anchor="middle" x="83.5" y="-568" font-family="Helvetica,sans-Serif" font-size="10.00">(Y&#45;up vs Z&#45;up, origin, roll/pitch)</text>
</g>
<!-- isolate&#45;&gt;frame_branch -->
<g id="edge3" class="edge">
<title>isolate&#45;&gt;frame_branch</title>
<path fill="none" stroke="#3b4d5c" d="M283.32,-639.94C242.86,-627.19 187.5,-609.76 145.31,-596.47"/>
<polygon fill="#3b4d5c" stroke="#3b4d5c" points="146.07,-593.77 137.59,-594.04 144.38,-599.11 146.07,-593.77"/>
<text text-anchor="middle" x="258.5" y="-614.8" font-family="Helvetica,sans-Serif" font-size="9.00">if spatial issue</text>
</g>
<!-- semantic_branch -->
<g id="node12" class="node">
<title>semantic_branch</title>
<path fill="#eefaf0" stroke="#2f4f4f" d="M347.5,-594C347.5,-594 197.5,-594 197.5,-594 191.5,-594 185.5,-588 185.5,-582 185.5,-582 185.5,-570 185.5,-570 185.5,-564 191.5,-558 197.5,-558 197.5,-558 347.5,-558 347.5,-558 353.5,-558 359.5,-564 359.5,-570 359.5,-570 359.5,-582 359.5,-582 359.5,-588 353.5,-594 347.5,-594"/>
<text text-anchor="middle" x="272.5" y="-579" font-family="Helvetica,sans-Serif" font-size="10.00">Semantic QA checks</text>
<text text-anchor="middle" x="272.5" y="-568" font-family="Helvetica,sans-Serif" font-size="10.00">(keypoint order, skeleton edges)</text>
</g>
<!-- isolate&#45;&gt;semantic_branch -->
<g id="edge4" class="edge">
<title>isolate&#45;&gt;semantic_branch</title>
<path fill="none" stroke="#3b4d5c" d="M323.4,-639.64C314.05,-628.14 301.67,-612.9 291.47,-600.34"/>
<polygon fill="#3b4d5c" stroke="#3b4d5c" points="293.57,-598.49 286.35,-594.05 289.22,-602.02 293.57,-598.49"/>
<text text-anchor="middle" x="342" y="-614.8" font-family="Helvetica,sans-Serif" font-size="9.00">if overlay issue</text>
</g>
<!-- runtime_branch -->
<g id="node13" class="node">
<title>runtime_branch</title>
<path fill="#eefaf0" stroke="#2f4f4f" d="M541,-594C541,-594 390,-594 390,-594 384,-594 378,-588 378,-582 378,-582 378,-570 378,-570 378,-564 384,-558 390,-558 390,-558 541,-558 541,-558 547,-558 553,-564 553,-570 553,-570 553,-582 553,-582 553,-588 547,-594 541,-594"/>
<text text-anchor="middle" x="465.5" y="-579" font-family="Helvetica,sans-Serif" font-size="10.00">Runtime/resource checks</text>
<text text-anchor="middle" x="465.5" y="-568" font-family="Helvetica,sans-Serif" font-size="10.00">(model URI, symlink, topic data)</text>
</g>
<!-- isolate&#45;&gt;runtime_branch -->
<g id="edge5" class="edge">
<title>isolate&#45;&gt;runtime_branch</title>
<path fill="none" stroke="#3b4d5c" d="M364.96,-639.84C384.36,-627.71 410.5,-611.37 431.27,-598.39"/>
<polygon fill="#3b4d5c" stroke="#3b4d5c" points="432.79,-600.75 438.09,-594.13 429.82,-596 432.79,-600.75"/>
<text text-anchor="middle" x="460.5" y="-614.8" font-family="Helvetica,sans-Serif" font-size="9.00">if launch/runtime issue</text>
</g>
<!-- onefix -->
<g id="node4" class="node">
<title>onefix</title>
<path fill="#fcf8e3" stroke="#2f4f4f" d="M346.5,-521C346.5,-521 214.5,-521 214.5,-521 208.5,-521 202.5,-515 202.5,-509 202.5,-509 202.5,-497 202.5,-497 202.5,-491 208.5,-485 214.5,-485 214.5,-485 346.5,-485 346.5,-485 352.5,-485 358.5,-491 358.5,-497 358.5,-497 358.5,-509 358.5,-509 358.5,-515 352.5,-521 346.5,-521"/>
<text text-anchor="middle" x="280.5" y="-506" font-family="Helvetica,sans-Serif" font-size="10.00">Apply one controlled fix only</text>
<text text-anchor="middle" x="280.5" y="-495" font-family="Helvetica,sans-Serif" font-size="10.00">(single variable change)</text>
</g>
<!-- rebuild -->
<g id="node5" class="node">
<title>rebuild</title>
<path fill="#eef5f9" stroke="#2f4f4f" d="M430.5,-448C430.5,-448 296.5,-448 296.5,-448 290.5,-448 284.5,-442 284.5,-436 284.5,-436 284.5,-419 284.5,-419 284.5,-413 290.5,-407 296.5,-407 296.5,-407 430.5,-407 430.5,-407 436.5,-407 442.5,-413 442.5,-419 442.5,-419 442.5,-436 442.5,-436 442.5,-442 436.5,-448 430.5,-448"/>
<text text-anchor="middle" x="363.5" y="-436" font-family="Helvetica,sans-Serif" font-size="10.00">If assets/config changed:</text>
<text text-anchor="middle" x="363.5" y="-425" font-family="Helvetica,sans-Serif" font-size="10.00">colcon build &#45;&#45;symlink&#45;install</text>
<text text-anchor="middle" x="363.5" y="-414" font-family="Helvetica,sans-Serif" font-size="10.00">source install/setup.bash</text>
</g>
<!-- onefix&#45;&gt;rebuild -->
<g id="edge9" class="edge">
<title>onefix&#45;&gt;rebuild</title>
<path fill="none" stroke="#3b4d5c" d="M299.75,-484.95C310.26,-475.65 323.46,-463.95 335.13,-453.63"/>
<polygon fill="#3b4d5c" stroke="#3b4d5c" points="337.29,-455.45 341.42,-448.05 333.58,-451.26 337.29,-455.45"/>
</g>
<!-- validate -->
<g id="node6" class="node">
<title>validate</title>
<path fill="#eef5f9" stroke="#2f4f4f" d="M531.5,-370C531.5,-370 315.5,-370 315.5,-370 309.5,-370 303.5,-364 303.5,-358 303.5,-358 303.5,-346 303.5,-346 303.5,-340 309.5,-334 315.5,-334 315.5,-334 531.5,-334 531.5,-334 537.5,-334 543.5,-340 543.5,-346 543.5,-346 543.5,-358 543.5,-358 543.5,-364 537.5,-370 531.5,-370"/>
<text text-anchor="middle" x="423.5" y="-355" font-family="Helvetica,sans-Serif" font-size="10.00">Re&#45;validate in simulator and logs</text>
<text text-anchor="middle" x="423.5" y="-344" font-family="Helvetica,sans-Serif" font-size="10.00">visual checks + topic checks + metric checks</text>
</g>
<!-- rebuild&#45;&gt;validate -->
<g id="edge10" class="edge">
<title>rebuild&#45;&gt;validate</title>
<path fill="none" stroke="#3b4d5c" d="M379.58,-406.8C387.14,-397.54 396.21,-386.43 404.14,-376.71"/>
<polygon fill="#3b4d5c" stroke="#3b4d5c" points="406.53,-378.21 409.42,-370.25 402.19,-374.67 406.53,-378.21"/>
</g>
<!-- pass -->
<g id="node7" class="node">
<title>pass</title>
<path fill="#f5f5f5" stroke="#2f4f4f" d="M540.82,-294.26C540.82,-294.26 487.5,-281.74 487.5,-281.74 481.66,-280.37 481.66,-277.63 487.5,-276.26 487.5,-276.26 540.82,-263.74 540.82,-263.74 546.66,-262.37 558.34,-262.37 564.18,-263.74 564.18,-263.74 617.5,-276.26 617.5,-276.26 623.34,-277.63 623.34,-280.37 617.5,-281.74 617.5,-281.74 564.18,-294.26 564.18,-294.26 558.34,-295.63 546.66,-295.63 540.82,-294.26"/>
<text text-anchor="middle" x="552.5" y="-276.5" font-family="Helvetica,sans-Serif" font-size="10.00">Issue resolved?</text>
</g>
<!-- validate&#45;&gt;pass -->
<g id="edge11" class="edge">
<title>validate&#45;&gt;pass</title>
<path fill="none" stroke="#3b4d5c" d="M454.4,-333.99C475.38,-322.45 502.93,-307.28 523.5,-295.96"/>
<polygon fill="#3b4d5c" stroke="#3b4d5c" points="525.07,-298.29 530.73,-291.98 522.37,-293.38 525.07,-298.29"/>
</g>
<!-- pass&#45;&gt;detect -->
<g id="edge13" class="edge">
<title>pass&#45;&gt;detect</title>
<path fill="none" stroke="#b94a48" d="M562.48,-294.8C570.87,-308.69 581.5,-330.36 581.5,-351 581.5,-659 581.5,-659 581.5,-659 581.5,-674.07 581.5,-690.93 581.5,-704.44"/>
<polygon fill="#b94a48" stroke="#b94a48" points="578.7,-704.78 581.5,-712.78 584.3,-704.78 578.7,-704.78"/>
<text text-anchor="middle" x="605.5" y="-500.8" font-family="Helvetica,sans-Serif" font-size="9.00" fill="#b94a48">No: iterate</text>
</g>
<!-- document -->
<g id="node8" class="node">
<title>document</title>
<path fill="#dff0d8" stroke="#2f4f4f" d="M617,-215C617,-215 488,-215 488,-215 482,-215 476,-209 476,-203 476,-203 476,-191 476,-191 476,-185 482,-179 488,-179 488,-179 617,-179 617,-179 623,-179 629,-185 629,-191 629,-191 629,-203 629,-203 629,-209 623,-215 617,-215"/>
<text text-anchor="middle" x="552.5" y="-200" font-family="Helvetica,sans-Serif" font-size="10.00">Document learning</text>
<text text-anchor="middle" x="552.5" y="-189" font-family="Helvetica,sans-Serif" font-size="10.00">update scripts/configs/notes</text>
</g>
<!-- pass&#45;&gt;document -->
<g id="edge12" class="edge">
<title>pass&#45;&gt;document</title>
<path fill="none" stroke="#3b4d5c" d="M552.5,-260.64C552.5,-249.66 552.5,-235.29 552.5,-223.09"/>
<polygon fill="#3b4d5c" stroke="#3b4d5c" points="555.3,-223.05 552.5,-215.05 549.7,-223.05 555.3,-223.05"/>
<text text-anchor="middle" x="560" y="-235.8" font-family="Helvetica,sans-Serif" font-size="9.00">Yes</text>
</g>
<!-- next -->
<g id="node9" class="node">
<title>next</title>
<path fill="#f5f5f5" stroke="#2f4f4f" d="M593.12,-138.21C593.12,-138.21 525.88,-115.79 525.88,-115.79 520.19,-113.9 520.19,-110.1 525.88,-108.21 525.88,-108.21 593.12,-85.79 593.12,-85.79 598.81,-83.9 610.19,-83.9 615.88,-85.79 615.88,-85.79 683.12,-108.21 683.12,-108.21 688.81,-110.1 688.81,-113.9 683.12,-115.79 683.12,-115.79 615.88,-138.21 615.88,-138.21 610.19,-140.1 598.81,-140.1 593.12,-138.21"/>
<text text-anchor="middle" x="604.5" y="-115" font-family="Helvetica,sans-Serif" font-size="10.00">More failures</text>
<text text-anchor="middle" x="604.5" y="-104" font-family="Helvetica,sans-Serif" font-size="10.00">or weak spots?</text>
</g>
<!-- document&#45;&gt;next -->
<g id="edge14" class="edge">
<title>document&#45;&gt;next</title>
<path fill="none" stroke="#3b4d5c" d="M563.27,-178.8C569.53,-168.81 577.61,-155.93 584.95,-144.21"/>
<polygon fill="#3b4d5c" stroke="#3b4d5c" points="587.53,-145.37 589.4,-137.1 582.78,-142.39 587.53,-145.37"/>
</g>
<!-- next&#45;&gt;detect -->
<g id="edge15" class="edge">
<title>next&#45;&gt;detect</title>
<path fill="none" stroke="#3b4d5c" d="M627.9,-134.61C642.1,-150.13 657.5,-172.41 657.5,-196 657.5,-659 657.5,-659 657.5,-659 657.5,-680.04 641.75,-696.64 624.59,-708.48"/>
<polygon fill="#3b4d5c" stroke="#3b4d5c" points="622.9,-706.24 617.72,-712.94 625.95,-710.93 622.9,-706.24"/>
<text text-anchor="middle" x="698.5" y="-425.3" font-family="Helvetica,sans-Serif" font-size="9.00">Yes: continue loop</text>
</g>
<!-- final -->
<g id="node10" class="node">
<title>final</title>
<path fill="#d9edf7" stroke="#2f4f4f" d="M680,-36C680,-36 529,-36 529,-36 523,-36 517,-30 517,-24 517,-24 517,-12 517,-12 517,-6 523,0 529,0 529,0 680,0 680,0 686,0 692,-6 692,-12 692,-12 692,-24 692,-24 692,-30 686,-36 680,-36"/>
<text text-anchor="middle" x="604.5" y="-21" font-family="Helvetica,sans-Serif" font-size="10.00">Stable pipeline</text>
<text text-anchor="middle" x="604.5" y="-10" font-family="Helvetica,sans-Serif" font-size="10.00">train/evaluate/select best model</text>
</g>
<!-- next&#45;&gt;final -->
<g id="edge16" class="edge">
<title>next&#45;&gt;final</title>
<path fill="none" stroke="#3b4d5c" d="M604.5,-81.89C604.5,-69.78 604.5,-55.84 604.5,-44.18"/>
<polygon fill="#3b4d5c" stroke="#3b4d5c" points="607.3,-44.14 604.5,-36.14 601.7,-44.14 607.3,-44.14"/>
<text text-anchor="middle" x="632" y="-56.8" font-family="Helvetica,sans-Serif" font-size="9.00">No: proceed</text>
</g>
<!-- frame_branch&#45;&gt;onefix -->
<g id="edge6" class="edge">
<title>frame_branch&#45;&gt;onefix</title>
<path fill="none" stroke="#3b4d5c" d="M130.69,-557.99C159.11,-547.75 195.44,-534.66 225.2,-523.93"/>
<polygon fill="#3b4d5c" stroke="#3b4d5c" points="226.44,-526.46 233.02,-521.11 224.54,-521.19 226.44,-526.46"/>
</g>
<!-- semantic_branch&#45;&gt;onefix -->
<g id="edge7" class="edge">
<title>semantic_branch&#45;&gt;onefix</title>
<path fill="none" stroke="#3b4d5c" d="M274.44,-557.81C275.41,-549.18 276.61,-538.56 277.68,-529.03"/>
<polygon fill="#3b4d5c" stroke="#3b4d5c" points="280.47,-529.29 278.58,-521.03 274.9,-528.66 280.47,-529.29"/>
</g>
<!-- runtime_branch&#45;&gt;onefix -->
<g id="edge8" class="edge">
<title>runtime_branch&#45;&gt;onefix</title>
<path fill="none" stroke="#3b4d5c" d="M421.19,-557.99C394.61,-547.79 360.67,-534.77 332.79,-524.07"/>
<polygon fill="#3b4d5c" stroke="#3b4d5c" points="333.56,-521.37 325.09,-521.11 331.56,-526.59 333.56,-521.37"/>
</g>
</g>
</svg>
